<svg xmlns="http://www.w3.org/2000/svg" width="183" height="121" viewBox="0 0 183 121">
    <defs>
        <style>
            .a,
            .e {
                fill: #fff;
            }

            .b,
            .d {
                fill: #00a551;
            }

            .c {
                fill: #0054a5;
            }

            .d {
                fill-rule: evenodd;
            }

            .e {
                font-size: 34px;
                font-family: BrushScriptMT, Brush Script MT;
            }
        </style>
    </defs>
    <g transform="translate(38)">
        <path class="a"
            d="M540.626,128.158H443.559V88.087a25.969,25.969,0,0,1,26-25.876h80.12v56.936A9.043,9.043,0,0,1,540.626,128.158Zm-69.07-56.775,68.156,31.787c4.183,0,8.5,20.14,8.5,15.977V63.672l.287,56.708c-13.529,0-80.967-31.109-99.781-35.823Z"
            transform="translate(-443.559 -62.211)" />
        <path class="b"
            d="M540.626,128.158H443.559V88.087a25.969,25.969,0,0,1,26-25.876h80.12v56.936A9.043,9.043,0,0,1,540.626,128.158Zm-95.6-1.461h95.6a7.577,7.577,0,0,0,7.587-7.55V63.672H469.561a24.5,24.5,0,0,0-24.534,24.416Z"
            transform="translate(-443.559 -62.211)" />
        <g transform="translate(13.296 4.186)">
            <path class="c"
                d="M451.61,85.339V69.6a1.506,1.506,0,0,1,.661-1.4,1.29,1.29,0,0,1,.763-.233,1.106,1.106,0,0,1,1.059.679l.165.475v.748a2.536,2.536,0,0,1,.555-.641,5.39,5.39,0,0,1,.992-.587,6.221,6.221,0,0,1,1.546-.5,8.239,8.239,0,0,1,1.58-.173,5.573,5.573,0,0,1,4.2,1.637,5.855,5.855,0,0,1,1.58,4.243V85a1.8,1.8,0,0,1-.6,1.6,1.315,1.315,0,0,1-.771.233,1.127,1.127,0,0,1-1.14-.7,2.648,2.648,0,0,1-.134-1.035V74.376a4.557,4.557,0,0,0-.677-2.74,3.425,3.425,0,0,0-2.3-1.17,5.7,5.7,0,0,0-.743-.067h-.406a1.79,1.79,0,0,1-.4.067,3.589,3.589,0,0,0-3.28,3.85V85.168a1.485,1.485,0,0,1-.784,1.54,1.283,1.283,0,0,1-.588.133,1.167,1.167,0,0,1-1.047-.567A1.856,1.856,0,0,1,451.61,85.339Z"
                transform="translate(-451.61 -62.695)" />
            <path class="c"
                d="M474.689,73.161v11.77q0,1.91-1.273,1.91a1.141,1.141,0,0,1-1.273-1.18v-.519l-.135.135-.1.1-.168.136-.236.169-.269.205-.269.169a6.99,6.99,0,0,1-3.372.782h-.877a6.588,6.588,0,0,1-3.457-1.325,4.94,4.94,0,0,1-1.77-2.8,9.009,9.009,0,0,1-.236-1.813,4.668,4.668,0,0,1,1.85-3.91,8.363,8.363,0,0,1,5.209-1.425h3.3a.611.611,0,0,0,.538-.675V73.845q0-3.478-3.453-3.479a5.424,5.424,0,0,0-.57.033,4.377,4.377,0,0,1-.469.034,3.941,3.941,0,0,0-1.559.5,6.566,6.566,0,0,0-1.423,1.4l-.235.3a1.469,1.469,0,0,1-.839.467h-.57a1.219,1.219,0,0,1-.971-1.3,1.843,1.843,0,0,1,.235-.8,5.361,5.361,0,0,1,1.541-1.635,7.089,7.089,0,0,1,3.319-1.3,8.745,8.745,0,0,1,1.273-.1,7.72,7.72,0,0,1,1.273.1,6.427,6.427,0,0,1,3.77,1.693A4.747,4.747,0,0,1,474.689,73.161ZM472.073,77.8h-3.666a5.506,5.506,0,0,0-3.382.812A3,3,0,0,0,464,81.122q0,2.879,3.265,3.285a5.339,5.339,0,0,0,.705.033,2.722,2.722,0,0,0,.709-.067q3.466-.574,3.466-4.232V78.21Z"
                transform="translate(-445.33 -62.695)" />
            <path class="c"
                d="M471.53,70.728h.994c.243,0,.363-.2.363-.6V66.393a1.453,1.453,0,0,1,.654-1.435,1.545,1.545,0,0,1,.722-.2,1.175,1.175,0,0,1,1.273.933v4.37a1.932,1.932,0,0,0,.033.434c.044.156.191.233.439.233h1.523a2.042,2.042,0,0,1,1.1.284.994.994,0,0,1,.457.917,1.042,1.042,0,0,1-.42.882,1.813,1.813,0,0,1-1.123.317h-1.407c-.38,0-.581.035-.6.1V87.737A1.272,1.272,0,0,1,474.16,89.1a1.157,1.157,0,0,1-.938-.4,1.614,1.614,0,0,1-.335-1.068V73.2l-.469-.067h-.837a1.278,1.278,0,0,1-1.207-.652,1.384,1.384,0,0,1-.134-.616,1.061,1.061,0,0,1,.794-1.132Z"
                transform="translate(-439.474 -64.758)" />
            <path class="c"
                d="M476.064,81.261V69.636a2.12,2.12,0,0,1,.17-.9,1.31,1.31,0,0,1,.475-.569,1.212,1.212,0,0,1,.679-.2,1.2,1.2,0,0,1,1.085.6,2.013,2.013,0,0,1,.238,1.035V81a3.5,3.5,0,0,0,.969,2.639,3.768,3.768,0,0,0,2.735.937q3.872,0,3.871-4.253V69.873q0-1.908,1.41-1.908a1.24,1.24,0,0,1,.842.284,1.173,1.173,0,0,1,.4.72V85.335a1.465,1.465,0,0,1-1.495,1.606,1.02,1.02,0,0,1-.984-.5l-.035-.1-.068-.2-.068-.233v-.633l-.368.5-.1.1-.167.1a5.707,5.707,0,0,1-3.519.966,7.944,7.944,0,0,1-2.046-.233,5.262,5.262,0,0,1-1.607-.735A5.361,5.361,0,0,1,476.65,84,5.919,5.919,0,0,1,476.064,81.261Z"
                transform="translate(-435.679 -62.695)" />
            <path class="c"
                d="M486.09,85.339V69.56c0-1.088.423-1.632,1.273-1.632a1.131,1.131,0,0,1,.989.334,1.624,1.624,0,0,1,.385,1.167V69.9a3.039,3.039,0,0,1,.988-1.085,3.786,3.786,0,0,1,1.359-.6,5.9,5.9,0,0,1,1.206-.15,2.781,2.781,0,0,1,.537.067,3.872,3.872,0,0,1,1.911.743,1.522,1.522,0,0,1,.636,1.149,1.2,1.2,0,0,1-.35.891,1.041,1.041,0,0,1-1.151.284l-.9-.334a2.544,2.544,0,0,0-.935-.2,5.842,5.842,0,0,0-.6.067,2.836,2.836,0,0,0-2.033,1.164,5.091,5.091,0,0,0-.667,2.887v10.6a1.377,1.377,0,0,1-.7,1.295,1.584,1.584,0,0,1-.732.2,1.134,1.134,0,0,1-1.219-.9Z"
                transform="translate(-429.148 -62.725)" />
            <path class="c"
                d="M503.735,78.238H494.72a.806.806,0,0,0-.335.033.788.788,0,0,0-.066.434v1.433a3.98,3.98,0,0,0,.923,2.7,4.161,4.161,0,0,0,2.372,1.367,6.34,6.34,0,0,0,1.108.1,4.178,4.178,0,0,0,3.7-2.268,4.978,4.978,0,0,1,.672-.917,1.208,1.208,0,0,1,.639-.283,1.015,1.015,0,0,1,1.059.266,1.21,1.21,0,0,1,.286,1.134,3.025,3.025,0,0,1-.5,1.234,6.733,6.733,0,0,1-4.727,3.134q-.4.035-.771.084a5.82,5.82,0,0,1-.8.049q-6.7,0-6.7-9.471,0-4.8,1.761-7.053a6.206,6.206,0,0,1,5.212-2.251,5.975,5.975,0,0,1,4.826,2.018Q505.076,72,505.076,76v.633a2.936,2.936,0,0,1-.167,1.267q-.168.269-.839.335ZM501.587,75.9c.426,0,.674-.056.74-.168a3.667,3.667,0,0,0,.1-1.167l-.068-.634a4.7,4.7,0,0,0-1.278-2.667,3.455,3.455,0,0,0-2.49-.933,4.388,4.388,0,0,0-1.28.166,3.894,3.894,0,0,0-2.827,3.3l-.1.666c-.021.179-.04.366-.05.567s-.017.322-.017.366q0,.367.134.434a1.257,1.257,0,0,0,.538.067Z"
                transform="translate(-425.579 -62.695)" />
        </g>
        <g transform="translate(12.949 30.226)">
            <g transform="translate(0 3.082)">
                <path class="b"
                    d="M451.4,106.472V84.431q0-1.952,1.42-1.952,1.206,0,1.349.976V90.64a2.762,2.762,0,0,1,.525-.577,4.851,4.851,0,0,1,.841-.5,6.816,6.816,0,0,1,3.26-.733c.116,0,.268.007.454.018s.4.03.631.053a6.122,6.122,0,0,1,3.925,1.85,5.727,5.727,0,0,1,1.331,3.947v12.087q0,1.782-1.384,1.783a1.55,1.55,0,0,1-.923-.279.865.865,0,0,1-.391-.735V94.972a3.517,3.517,0,0,0-1.016-2.657,3.983,3.983,0,0,0-2.873-.978,5.608,5.608,0,0,0-1.016.069,3.6,3.6,0,0,0-3.364,3.977v11.193q0,1.987-1.4,1.988Q451.4,108.564,451.4,106.472Z"
                    transform="translate(-451.4 -82.479)" />
            </g>
            <path class="b"
                d="M469.773,107.18a8.27,8.27,0,0,1-3.542-.751,8.38,8.38,0,0,1-2.755-2.039,9.355,9.355,0,0,1-1.787-3.017,10.366,10.366,0,0,1-.639-3.643,10.229,10.229,0,0,1,.639-3.627,9.29,9.29,0,0,1,1.8-3,8.572,8.572,0,0,1,2.771-2.039,8.252,8.252,0,0,1,3.542-.751,8.009,8.009,0,0,1,3.524.767,8.415,8.415,0,0,1,2.707,2.041,9.117,9.117,0,0,1,1.721,2.963,10.317,10.317,0,0,1,.608,3.505c0,.256-.007.488-.017.7a4.066,4.066,0,0,1-.049.49H464.1a7.415,7.415,0,0,0,.591,2.475,6.367,6.367,0,0,0,1.278,1.918,5.9,5.9,0,0,0,1.787,1.256,5.067,5.067,0,0,0,2.116.454c.525,0,1.1.312,1.609.161a6.239,6.239,0,0,0,1.432-.408,6.963,6.963,0,0,1,1.13-.575c.621-.242,1.853-.639,2.028-1.1l1.182-.376a6.775,6.775,0,0,1-1.164,1.849,7.849,7.849,0,0,1-1.706,1.448,8.544,8.544,0,0,1-2.148.958A8.659,8.659,0,0,1,469.773,107.18Zm5.869-10.672a6.876,6.876,0,0,0-.606-2.389,6.44,6.44,0,0,0-1.278-1.865,5.724,5.724,0,0,0-1.789-1.2,5.6,5.6,0,0,0-4.328,0,5.558,5.558,0,0,0-1.787,1.221,6.164,6.164,0,0,0-1.247,1.865,7.184,7.184,0,0,0-.573,2.371Z"
                transform="translate(-445.114 -75.644)" />
            <g transform="translate(7.067)">
                <path class="d"
                    d="M466.093,103.991a8.571,8.571,0,0,0,.362.968,7.883,7.883,0,0,0,5.5,4.444,8.815,8.815,0,0,0,6.882-1.293,12.428,12.428,0,0,0,3.506-3.982c3.95-7.2-1.838-15.365-9.291-16.94a16.618,16.618,0,0,1,3.3,1.643c-4.976,2.886-6.855,2.82-12.348.161a40.413,40.413,0,0,0-8.325-2.978c7.742-3.992,14.381-9.347,21.17-1.011-4.911-2.431-9.5-1.443-16.042.355,8.067-.5,14.161-1.6,20.526,4.421,4.639,4.386,5.555,9.407,3.2,15.075a11.133,11.133,0,0,1-2.946,4.079,12.256,12.256,0,0,1-7.06,3.119C470.894,112.094,468.278,111.246,466.093,103.991Z"
                    transform="translate(-455.679 -80.604)" />
            </g>
            <g transform="translate(39.539 3.151)">
                <path class="b"
                    d="M475.342,104.573v-16.5q0-1.706,1.331-1.706a1.179,1.179,0,0,1,1.034.35,1.686,1.686,0,0,1,.4,1.219v.488a3.178,3.178,0,0,1,1.034-1.132,3.918,3.918,0,0,1,1.42-.628,6.165,6.165,0,0,1,1.26-.158,3.084,3.084,0,0,1,.562.071,4.052,4.052,0,0,1,2,.777,1.6,1.6,0,0,1,.666,1.2,1.261,1.261,0,0,1-.367.932,1.168,1.168,0,0,1-.854.366,1.155,1.155,0,0,1-.349-.069l-.943-.348a2.635,2.635,0,0,0-.974-.21c-.094,0-.3.025-.629.069a2.97,2.97,0,0,0-2.127,1.218,5.331,5.331,0,0,0-.7,3.02V104.61a1.442,1.442,0,0,1-.728,1.356,1.668,1.668,0,0,1-.765.207,1.186,1.186,0,0,1-1.275-.94Z"
                    transform="translate(-475.342 -80.054)" />
                <path class="b"
                    d="M482.005,106.961V84.447q0-1.925,1.384-1.926,1.2,0,1.384.978v7.463l.21-.274.244-.274.106-.069.21-.205a5.3,5.3,0,0,1,3.7-1.234q.384,0,.839.035a5.159,5.159,0,0,1,.874.14,5.463,5.463,0,0,1,4.087,3.1q1.187,2.512,1.188,8.126a9.2,9.2,0,0,1-1.863,6.154,6.2,6.2,0,0,1-4.964,2.179,8.023,8.023,0,0,1-1.323-.123,7.48,7.48,0,0,1-1.429-.391,4.37,4.37,0,0,1-1.149-.623l-.1-.105-.21-.214-.243-.248-.175-.177v.848a1.142,1.142,0,0,1-.456.739,1.422,1.422,0,0,1-.892.294,1.581,1.581,0,0,1-.728-.21A1.481,1.481,0,0,1,482.005,106.961Zm2.627-8.258v1.15q0,3.382,1.087,4.777a4.126,4.126,0,0,0,3.47,1.4,3.584,3.584,0,0,0,3.171-1.5q1.033-1.5,1.034-5.02V97.377a7.012,7.012,0,0,0-1.143-4.481A3.99,3.99,0,0,0,489,91.518a3.7,3.7,0,0,0-3.2,1.4,7.881,7.881,0,0,0-1.022,4.569Z"
                    transform="translate(-471.002 -82.521)" />
                <path class="b"
                    d="M491.129,102.248q0-1.42,1.331-1.42a2.528,2.528,0,0,1,.421.069,1.244,1.244,0,0,1,.543.258q.225.19.578.532a7.121,7.121,0,0,0,2.768,1.584,8.181,8.181,0,0,0,2.1.311,4.918,4.918,0,0,0,2.646-.644,2.828,2.828,0,0,0,1.316-1.722,4.962,4.962,0,0,0,.139-.871q0-2.157-2.837-2.784l-1.368-.314-.561-.1-1.05-.209a8.681,8.681,0,0,1-4.048-1.827,4.074,4.074,0,0,1-1.28-3.114,7.057,7.057,0,0,1,.106-1.183,4.825,4.825,0,0,1,2.137-3.2,7.583,7.583,0,0,1,4.487-1.287h.595c.281.046.537.082.771.105a6.623,6.623,0,0,1,.912.174,8.366,8.366,0,0,1,1.087.348,6.2,6.2,0,0,1,2.593,1.6,1.759,1.759,0,0,1,.525,1.569,1.2,1.2,0,0,1-1.253,1.011.934.934,0,0,1-.408-.069l-.406-.21-.6-.488a7.013,7.013,0,0,0-1.1-.749,5.829,5.829,0,0,0-1.1-.436,1.669,1.669,0,0,0-.319-.087c-.163-.035-.34-.071-.528-.105a5.7,5.7,0,0,0-.92-.053,4.549,4.549,0,0,0-1.414.209,4.227,4.227,0,0,0-1.2.628,2.4,2.4,0,0,0-1.024,1.949A2.023,2.023,0,0,0,495.9,93.6a3.6,3.6,0,0,0,.875.4q.421.121,1.577.365l.912.209,1.052.209q5.43,1.289,5.432,5.221a7.155,7.155,0,0,1-.246,1.809,5.285,5.285,0,0,1-2.314,3.167,8.021,8.021,0,0,1-4.555,1.218,15.492,15.492,0,0,1-1.752-.12,7.771,7.771,0,0,1-2.137-.606A9.917,9.917,0,0,1,492,103.807,2.289,2.289,0,0,1,491.129,102.248Z"
                    transform="translate(-465.058 -80.077)" />
            </g>
        </g>
    </g>
</svg>